<svg width="434" height="104" viewBox="0 0 434 104" fill="none" xmlns="http://www.w3.org/2000/svg">
<g clip-path="url(#clip0_2634_1663)">
<path d="M51.987 43.9866C58.6135 43.9868 63.987 49.3601 63.987 55.9866C63.987 62.6132 58.6135 67.9865 51.987 67.9866C45.3603 67.9866 39.987 62.6133 39.987 55.9866C39.987 49.36 45.3603 43.9866 51.987 43.9866Z" fill="#FFB25B"/>
<path fill-rule="evenodd" clip-rule="evenodd" d="M56 -0.0133667C78.6274 -0.0133667 89.9406 -0.0128562 96.9701 7.01658C103.999 14.046 104 25.3592 104 47.9866V55.9866C104 78.6141 103.999 89.9273 96.9701 96.9567C89.9406 103.986 78.6274 103.987 56 103.987H48C25.3726 103.987 14.0594 103.986 7.02995 96.9567C0.000510534 89.9273 0 78.6141 0 55.9866V47.9866C0 25.3592 0.000510534 14.046 7.02995 7.01658C14.0594 -0.0128562 25.3726 -0.0133667 48 -0.0133667H56ZM19.987 15.9866C17.7736 15.9866 15.987 17.7733 15.987 19.9866C15.987 22.2 17.7736 23.9866 19.987 23.9866H47.987V36.3864C38.8536 38.2397 31.987 46.3066 31.987 55.9866C31.987 65.6666 38.8536 73.7336 47.987 75.5869V87.9866C47.987 90.2 49.7736 91.9866 51.987 91.9866C54.2002 91.9865 55.987 90.1999 55.987 87.9866V75.5869C65.1202 73.7335 71.987 65.6665 71.987 55.9866C71.987 46.3067 65.1202 38.2398 55.987 36.3864V23.9866H83.987C86.2002 23.9865 87.987 22.1999 87.987 19.9866C87.987 17.7734 86.2002 15.9868 83.987 15.9866H19.987Z" fill="#FFB25B"/>
<path d="M267 37.3333C277.307 37.3333 285.667 45.6933 285.667 56C285.667 66.3066 277.307 74.6666 267 74.6666C256.693 74.6666 248.333 66.3066 248.333 56C248.333 45.6933 256.693 37.3333 267 37.3333ZM148.053 38C148.053 38 148.12 38 148.16 38C148.187 38 148.213 38 148.253 38C148.293 38 148.32 38 148.36 38.0133C148.387 38.0133 148.427 38.0133 148.453 38.0266C148.48 38.0266 148.52 38.04 148.547 38.0533C148.573 38.0533 148.613 38.0666 148.64 38.08C148.68 38.08 148.707 38.1066 148.733 38.12C148.76 38.12 148.787 38.1466 148.813 38.1466C148.84 38.16 148.88 38.1733 148.907 38.1866C148.933 38.2 148.973 38.2133 149 38.24C149.027 38.24 149.04 38.2666 149.067 38.28C149.107 38.3066 149.133 38.3333 149.173 38.3466C149.173 38.3466 149.2 38.36 149.2 38.3733C149.2 38.3733 149.213 38.3866 149.227 38.4C149.253 38.4266 149.293 38.4533 149.32 38.48C149.347 38.4933 149.36 38.52 149.387 38.5333C149.413 38.56 149.44 38.5866 149.467 38.6133C149.48 38.64 149.507 38.6533 149.533 38.68C149.56 38.7066 149.573 38.7333 149.6 38.76C149.613 38.7866 149.64 38.8133 149.653 38.8266C149.68 38.8533 149.693 38.8933 149.72 38.92C149.72 38.9466 149.747 38.96 149.76 38.9866C149.773 39.0266 149.8 39.0533 149.813 39.0933C149.813 39.12 149.84 39.1466 149.853 39.1733C149.867 39.2 149.88 39.24 149.893 39.2666C149.893 39.2933 149.907 39.32 149.92 39.3466C149.92 39.3866 149.947 39.4266 149.947 39.4533C149.947 39.48 149.96 39.5066 149.96 39.5333C149.96 39.5733 149.973 39.6133 149.987 39.6533C149.987 39.68 149.987 39.6933 149.987 39.72C149.987 39.76 149.987 39.8 149.987 39.84C149.987 39.8666 149.987 39.8933 149.987 39.92C149.987 39.9333 149.987 39.96 149.987 39.9733C149.987 39.9866 149.987 40.0133 149.987 40.0266C149.987 40.0666 149.987 40.0933 149.987 40.1333C149.987 40.16 149.987 40.1866 149.987 40.2133C149.987 40.2533 149.987 40.2933 149.973 40.32C149.973 40.3466 149.973 40.3866 149.96 40.4133C149.96 40.44 149.947 40.4666 149.933 40.5066C149.933 40.5466 149.907 40.5866 149.893 40.6133C149.893 40.64 149.88 40.6533 149.867 40.68C149.853 40.72 149.84 40.76 149.813 40.8C149.813 40.8133 149.8 40.84 149.787 40.8533C149.76 40.8933 149.733 40.9466 149.707 40.9866C149.707 40.9866 149.707 41.0133 149.693 41.0133C149.667 41.0533 149.64 41.0933 149.613 41.1333C149.613 41.1333 149.6 41.16 149.587 41.1733L127.987 69.9733H147.987C149.093 69.9733 149.987 70.8666 149.987 71.9733C149.987 73.08 149.093 73.9733 147.987 73.9733H123.987C123.987 73.9733 123.947 73.9733 123.933 73.9733C123.893 73.9733 123.867 73.9733 123.827 73.9733C123.8 73.9733 123.773 73.9733 123.747 73.9733C123.707 73.9733 123.667 73.9733 123.64 73.96C123.613 73.96 123.573 73.96 123.547 73.9466C123.52 73.9466 123.48 73.9333 123.453 73.92C123.427 73.92 123.4 73.9066 123.373 73.8933C123.333 73.8933 123.293 73.8666 123.253 73.8533C123.24 73.8533 123.213 73.84 123.2 73.8266C123.16 73.8133 123.133 73.7866 123.093 73.7733C123.067 73.76 123.04 73.7466 123.013 73.7333C122.987 73.72 122.96 73.7066 122.947 73.6933C122.92 73.6666 122.88 73.6533 122.853 73.6266C122.853 73.6266 122.827 73.6133 122.813 73.6C122.8 73.6 122.787 73.5733 122.773 73.56C122.747 73.5466 122.733 73.52 122.707 73.5066C122.68 73.48 122.653 73.4533 122.613 73.4266C122.6 73.4133 122.573 73.4 122.56 73.3733C122.533 73.3466 122.507 73.3066 122.467 73.28C122.453 73.2666 122.44 73.24 122.427 73.2266C122.4 73.2 122.373 73.16 122.36 73.1333C122.347 73.1066 122.333 73.0933 122.32 73.0666C122.293 73.04 122.28 73 122.267 72.9733C122.253 72.9466 122.24 72.92 122.227 72.8933C122.213 72.8666 122.2 72.84 122.187 72.8C122.187 72.7733 122.16 72.7466 122.16 72.7333C122.147 72.6933 122.133 72.6533 122.12 72.6133C122.12 72.5866 122.107 72.56 122.093 72.5333C122.093 72.5066 122.08 72.4666 122.067 72.44C122.067 72.4133 122.067 72.3733 122.053 72.3466C122.053 72.3066 122.053 72.28 122.04 72.24C122.04 72.2133 122.04 72.2 122.04 72.1733C122.04 72.12 122.04 72.08 122.04 72.0266C122.04 72.0266 122.04 72.0133 122.04 72C122.04 71.9866 122.04 71.9866 122.04 71.9733C122.04 71.92 122.04 71.8666 122.04 71.8266C122.04 71.8133 122.04 71.7866 122.04 71.7733C122.04 71.7333 122.04 71.6933 122.053 71.6533C122.053 71.6266 122.053 71.5866 122.067 71.56C122.067 71.5333 122.08 71.4933 122.093 71.4666C122.093 71.44 122.107 71.4133 122.12 71.3866C122.12 71.3466 122.147 71.3066 122.16 71.28C122.16 71.2533 122.173 71.24 122.187 71.2133C122.2 71.1866 122.213 71.1466 122.227 71.12C122.24 71.0933 122.253 71.0533 122.28 71.0266C122.28 71 122.307 70.9866 122.32 70.96C122.347 70.9333 122.36 70.8933 122.387 70.8666C122.387 70.8666 122.4 70.84 122.413 70.8266L144.013 42.0266H124.013C122.907 42.0266 122.013 41.1333 122.013 40.0266C122.013 38.92 122.907 38.0266 124.013 38.0266H148.013C148.013 38.0266 148.053 38.0266 148.067 38.0266L148.053 38ZM190 38C191.107 38 192 38.8933 192 40C192 41.1066 191.107 42 190 42H172V54H186C187.107 54 188 54.8933 188 56C188 57.1066 187.107 58 186 58H172V70H190C191.107 70 192 70.8933 192 72C192 73.1066 191.107 74 190 74H170C168.893 74 168 73.1066 168 72V40C168 39.9333 168 39.8666 168 39.7866C168.093 38.8533 168.84 38.0933 169.787 38C169.853 38 169.92 38 169.987 38H189.987H190ZM224 38C229.52 38 234 42.48 234 48C234 51.7866 231.893 55.08 228.787 56.7866L227.093 57.7066L233.787 71.1066C234.28 72.0933 233.88 73.2933 232.893 73.7866C231.907 74.28 230.707 73.88 230.213 72.8933L222.76 58H214V72C214 73.1066 213.107 74 212 74C210.893 74 210 73.1066 210 72V40C210 39.9333 210 39.8666 210 39.7866C210.107 38.7866 210.96 38 211.987 38H223.987H224ZM321 38C322.107 38 323 38.8933 323 40C323 41.1066 322.107 42 321 42H311V72C311 73.1066 310.107 74 309 74C307.893 74 307 73.1066 307 72V42H297C295.893 42 295 41.1066 295 40C295 38.8933 295.893 38 297 38H321ZM342 38C343.107 38 344 38.8933 344 40V72C344 73.1066 343.107 74 342 74C340.893 74 340 73.1066 340 72V40C340 38.8933 340.893 38 342 38ZM388 38C389.107 38 390 38.8933 390 40C390 41.1066 389.107 42 388 42H370V54H384C385.107 54 386 54.8933 386 56C386 57.1066 385.107 58 384 58H370V70H388C389.107 70 390 70.8933 390 72C390 73.1066 389.107 74 388 74H368C366.893 74 366 73.1066 366 72V40C366 39.9333 366 39.8666 366 39.7866C366.093 38.8533 366.84 38.0933 367.787 38C367.853 38 367.92 38 367.987 38H387.987H388ZM424 38C429.52 38 434 42.48 434 48C434 51.7866 431.893 55.08 428.787 56.7866L427.093 57.7066L433.8 71.1066C434.293 72.0933 433.893 73.2933 432.907 73.7866C431.92 74.28 430.72 73.88 430.227 72.8933L422.787 58H414.027V72C414.027 73.1066 413.133 74 412.027 74C410.92 74 410.027 73.1066 410.027 72V40C410.027 39.9333 410.027 39.8666 410.027 39.7866C410.133 38.7866 410.987 38 412.013 38H424ZM267 41.48C258.987 41.48 252.48 47.9866 252.48 56C252.48 64.0133 258.987 70.52 267 70.52C275.013 70.52 281.52 64.0266 281.52 56C281.52 47.9733 275.013 41.48 267 41.48ZM214 54H223.947C223.947 54 224 54 224.027 54H224.067H224.4C227.52 53.7866 230 51.1866 230 48.0133C230 44.84 227.32 42.0133 224 42.0133H214V54ZM414 54H423.947C423.947 54 424 54 424.027 54H424.067H424.4C427.52 53.7866 430 51.1866 430 48.0133C430 44.84 427.307 42.0133 424 42.0133H414V54Z" fill="#161C24"/>
</g>
<defs>
<clipPath id="clip0_2634_1663">
<rect width="434" height="104" fill="white"/>
</clipPath>
</defs>
</svg>
